<?xml version="1.0" encoding="utf-8"?>
<!-- Generator: Adobe Illustrator 27.0.1, SVG Export Plug-In . SVG Version: 6.00 Build 0)  -->
<svg version="1.1" id="Calque_1" xmlns="http://www.w3.org/2000/svg" xmlns:xlink="http://www.w3.org/1999/xlink" x="0px" y="0px"
	 viewBox="0 0 324.9 339.3" style="enable-background:new 0 0 324.9 339.3;" xml:space="preserve">
<style type="text/css">
	.st0{fill:#FFFFFF;}
</style>
<path class="st0" d="M321.8,239.9c-5.8,5.4-12.5,7.6-20.2,7.2c-5.4-0.3-10-2.4-12.6-7.3c-2.3-4.2-4.3-8.7-5.8-13.3
	c-2.8-8.7-2.7-17.8-3.4-26.8c-0.9-11.5-1.5-23.1-3-34.5c-1.7-13.9-8.2-25.1-20.1-33.2c-10.9-7.4-22.8-11.9-35.7-14.2
	c-3.7-0.6-7.3-1.3-11-1.9l0,0c0-0.2,0-0.4,0-0.5c0.7-0.1,1.3-0.2,2-0.4c5-1,10.1-1.7,15-3.1c15.1-4.3,27.7-12.2,36.5-25.5
	c6.5-9.9,9-21,7.4-32.7c-2-15.2-9.1-27.7-21.4-37.2c-8.8-6.8-18.3-11.7-29.4-13.4c-10.9-1.7-21.8-2.5-32.8-2.3
	c-21.5,0.3-43,0.2-64.5-0.1c0,2,0,4,0.3,6c0.1,0.5,0,1-0.1,1.4c0,0.2,0,0.3,0,0.5c0,27.7,0,55.4,0,83.1c0,10.5-0.3,21.1-0.4,31.6
	c0,0.2,0,0.4-0.1,0.7c0,0.2,0,0.4,0,0.6v5h0.1V250H157V119.5c3.5,0,6.6-0.1,9.7,0c13,0.2,26,0.2,39,0.9c8.7,0.5,16.3,4.2,22.4,10.5
	c7.6,7.9,11.5,17.6,12.7,28.3c1.4,12.6,2.3,25.2,3.3,37.8c0.8,9.9,1.9,19.8,5.1,29.3c3.9,11.5,11.3,19.5,22.9,23.5
	c5.9,2,11.9,2.8,18.1,3c7.7,0.3,15.4,0,22.9-2.3c4.4-1.4,8.3-3.6,11.8-6.8C323.8,242.3,322.8,241.2,321.8,239.9z M202,113.3
	c-4.7,0.7-9.4,1-14.2,1.1c-9.4,0.2-18.8,0-28.2,0h-2.2V10.1c0-3.4,0-3.7,3.4-3.8c8.7-0.3,17.3-0.4,26-0.3c4.2,0.1,8.5,0.6,12.7,1.4
	c17.8,3.6,27.8,15.2,31.5,32.4c3.3,15.2,3,30.6-0.7,45.8c-1.8,7.1-4.9,13.7-10.3,18.9C215,109.5,208.8,112.3,202,113.3z"/>
</svg>
