<?xml version="1.0" encoding="utf-8"?>
<!-- Generator: Adobe Illustrator 27.0.1, SVG Export Plug-In . SVG Version: 6.00 Build 0)  -->
<svg version="1.1" id="Calque_1" xmlns="http://www.w3.org/2000/svg" xmlns:xlink="http://www.w3.org/1999/xlink" x="0px" y="0px"
	 viewBox="0 0 324.9 339.3" style="enable-background:new 0 0 324.9 339.3;" xml:space="preserve">
<style type="text/css">
	.st0{fill:#FFFFFF;}
</style>
<path class="st0" d="M289.4,264.9c-2.2,8.9-5,17.6-8.7,25.9c-4.6,10.2-10.4,19.7-18.5,27.6c-11.4,11.2-25.6,15.9-41.3,16.2
	c-20.5,0.3-41.1,0.2-61.6,0.2H157V119.5c0.1,0,0.2,0,0.2,0v-2.8c0-0.6,0.1-1.1,0.3-1.6v-0.6h-0.1v-104c-0.3-1-0.4-2-0.3-3.1
	c-0.2,1,0-0.4,0-0.6c0-0.4,0-0.9,0-1.3c0-0.8,0-1.6,0-2.4c0-0.7,0.1-1.4,0.2-2.1c-11.4,0-22.7-0.1-34.1-0.3c0.1,0.3,0.1,0.6,0.1,0.9
	v4.8c0,0.3,0,0.6-0.1,0.9c0,0.4,0,0.9,0,1.3c0,27.7,0,55.4,0,83.1c0,10.5-0.3,21.1-0.4,31.6l0,0c0.2,0.5,0.3,1,0.3,1.5v5.1
	c0,0.5-0.1,0.9-0.2,1.3v203.5H85.4v4.5h207.8v-74.4L289.4,264.9L289.4,264.9z"/>
</svg>
