<?xml version="1.0" encoding="utf-8"?>
<!-- Generator: Adobe Illustrator 27.0.1, SVG Export Plug-In . SVG Version: 6.00 Build 0)  -->
<svg version="1.1" id="Calque_1" xmlns="http://www.w3.org/2000/svg" xmlns:xlink="http://www.w3.org/1999/xlink" x="0px" y="0px"
	 viewBox="0 0 324.9 339.3" style="enable-background:new 0 0 324.9 339.3;" xml:space="preserve">
<style type="text/css">
	.st0{fill:#FFFFFF;}
</style>
<path class="st0" d="M210.2,115.9c3.6,0.6,7.3,1.2,11,1.9c12.9,2.3,24.8,6.8,35.7,14.2c11.8,8.1,18.4,19.3,20.1,33.2
	c1.4,11.5,2.1,23,3,34.5c0.7,9,0.5,18.1,3.4,26.8c1.5,4.6,3.5,9.1,5.8,13.3c2.6,4.8,7.2,6.9,12.6,7.3c7.6,0.5,14.4-1.7,20.1-7.2
	c1,1.2,2,2.4,3.1,3.7c-3.5,3.1-7.4,5.4-11.8,6.8c-7.5,2.3-15.1,2.6-22.9,2.3c-6.1-0.2-12.2-1-18.1-3c-11.6-4-19-12.1-22.9-23.5
	c-3.2-9.5-4.2-19.4-5.1-29.3c-1.1-12.6-1.9-25.2-3.3-37.8c-1.2-10.7-5.1-20.4-12.7-28.3c-6.1-6.3-13.7-10-22.4-10.5
	c-13-0.7-26-0.7-39-0.9c-3.1-0.1-6.3,0-9.7,0v215.3c0.8,0,1.5,0,2.2,0c20.5-0.1,41.1,0.1,61.6-0.2c15.7-0.2,29.9-4.9,41.3-16.2
	c8-7.9,13.9-17.4,18.5-27.6c3.8-8.3,6.5-16.9,8.7-25.9h3.7v74.4H85.4v-4.5h37.5V129.6c-2.3,0.3-4.4,0.6-6.6,0.9
	c-9.5,1.2-19,2-28.6,1.3c-20.3-1.5-39.8-6-57.5-16.8c-11.5-7-21-16.1-26.1-28.8c-7-17.7-5.1-34.8,5.3-50.8
	c7.7-11.8,18.8-19.7,31.5-25.4c16.8-7.5,34.5-10.5,52.8-10c31.3,0.8,62.6,1.2,93.9,0.7c10.9-0.2,21.9,0.7,32.8,2.3
	c11.1,1.7,20.6,6.6,29.4,13.4c12.2,9.5,19.4,22,21.4,37.2c1.5,11.7-0.9,22.8-7.4,32.7c-8.8,13.3-21.4,21.2-36.4,25.5
	c-4.9,1.4-10,2.1-15,3.1c-0.7,0.1-1.4,0.3-2,0.4C210.2,115.5,210.2,115.7,210.2,115.9L210.2,115.9z M122.6,124.8
	c0.1-0.7,0.2-1.1,0.2-1.4c0.2-10.5,0.4-21.1,0.4-31.6c0.1-27.7,0-55.4,0-83.1c0-0.5,0-1,0-1.4c0.1-1-0.3-1.4-1.3-1.5
	C108,4.5,94,4.4,80.2,6.5C74.1,7.5,68.1,9,62.7,12c-9.3,5-15.1,12.9-18.3,22.8c-3.3,10.3-4.1,21-4.1,31.7c0,10.3,1.1,20.6,5,30.3
	c7,17.6,20.4,26.9,38.8,29.7c7.4,1.2,14.9,1,22.3,0.3C111.8,126.2,117.2,125.4,122.6,124.8L122.6,124.8z M157.4,114.5h2.2
	c9.4,0,18.8,0.1,28.2-0.1c4.7-0.1,9.5-0.4,14.2-1.1c6.9-1.1,13-3.8,18-8.8c5.4-5.3,8.5-11.8,10.3-18.9c3.7-15.2,4.1-30.6,0.7-45.8
	c-3.8-17.1-13.7-28.8-31.6-32.4c-4.2-0.8-8.5-1.3-12.7-1.4c-8.7-0.1-17.3,0-26,0.3c-3.4,0.1-3.4,0.4-3.4,3.8c0,34.2,0,68.4,0,102.6
	L157.4,114.5L157.4,114.5z"/>
</svg>
