<?xml version="1.0" encoding="utf-8"?>
<!-- Generator: Adobe Illustrator 27.0.1, SVG Export Plug-In . SVG Version: 6.00 Build 0)  -->
<svg version="1.1" id="Calque_1" xmlns="http://www.w3.org/2000/svg" xmlns:xlink="http://www.w3.org/1999/xlink" x="0px" y="0px"
	 viewBox="0 0 324.9 339.3" style="enable-background:new 0 0 324.9 339.3;" xml:space="preserve">
<style type="text/css">
	.st0{fill:#FFFFFF;}
</style>
<path class="st0" d="M157.4,113.6V11.2c0-0.2-0.1-0.5-0.1-0.7V6.3c0-0.4,0.1-0.9,0.2-1.3c-0.1-1.4-0.2-2.7-0.4-4.1
	C136,1,114.8,0.6,93.7,0.1c-18.2-0.5-36,2.5-52.8,10C28.2,15.7,17.1,23.6,9.4,35.4C-1,51.4-2.9,68.5,4.1,86.2
	c5,12.7,14.6,21.8,26.1,28.8c17.6,10.8,37.1,15.3,57.5,16.8c9.6,0.7,19.1-0.1,28.6-1.3c2.1-0.3,4.2-0.6,6.5-0.9v205.2h-0.1
	c0,1.5,0.1,3,0.1,4.5h33.9c0.1-1.8,0.2-3.5,0.2-5.3c0-0.1,0-0.3,0-0.4V119.5c0.1,0,0.2,0,0.3,0l0,0v-0.1v-4.9
	C157.4,114.1,157.4,113.9,157.4,113.6z M123.2,91.7c0,10.5-0.3,21.1-0.4,31.6c0,0.4-0.1,0.7-0.1,1.4l0,0c-5.4,0.7-10.8,1.5-16.2,2
	c-7.4,0.7-14.9,0.9-22.3-0.3c-18.3-2.8-31.8-12.1-38.8-29.7c-3.9-9.7-4.9-19.9-5-30.3c0-10.7,0.7-21.4,4.1-31.7
	c3.2-9.9,9-17.8,18.3-22.8C68.1,9,74.1,7.4,80.2,6.5c13.9-2.1,27.8-2,41.8-0.8c1,0.1,1.4,0.5,1.3,1.5c0,0.5,0,1,0,1.4
	C123.2,36.3,123.3,64,123.2,91.7z"/>
</svg>
